<svg xmlns="http://www.w3.org/2000/svg" viewBox="0 0 64 64">
<defs><g id="ant-head" fill="none" stroke="currentColor" stroke-width="2.6" stroke-linecap="round" stroke-linejoin="round">
<path d="M24 23 16 13 6 9M40 23 48 13 58 9M32 20c-12 0-18 9-16 20l6 9h20l6-9c2-11-4-20-16-20Z"/>
<path d="m24 48-4 8 10-3m10-5 4 8-10-3"/><ellipse cx="23" cy="34" rx="3" ry="4"/><ellipse cx="41" cy="34" rx="3" ry="4"/>
</g></defs>
<symbol id="ant" viewBox="0 0 64 64"><use href="#ant-head"/></symbol>
<symbol id="infected-ant" viewBox="0 0 64 64"><use href="#ant-head"/><g fill="none" stroke="currentColor" stroke-width="2.6" stroke-linecap="round"><path d="M29 20V10m9 11 3-9"/><circle cx="29" cy="7" r="3"/><circle cx="42" cy="9" r="3"/></g></symbol>
<symbol id="beetle" viewBox="0 0 64 64"><g fill="none" stroke="currentColor" stroke-width="2.6" stroke-linecap="round" stroke-linejoin="round">
<path d="m26 12-6-7m18 7 6-7M22 20l-7-6M42 20l7-6M18 29 7 23m11 16L5 40m17 8-9 11M46 29l11-6M46 39l13 1m-17 8 9 11"/>
<path d="M25 20v-3a7 7 0 0 1 14 0v3m-7 1c-9 0-15 8-15 18s6 17 15 17 15-7 15-17-6-18-15-18Zm0 0v35m-15-20 15-8 15 8"/>
</g></symbol>
<symbol id="worm" viewBox="0 0 64 64"><g fill="none" stroke="currentColor" stroke-width="2.6" stroke-linecap="round" stroke-linejoin="round">
<path d="M39 18C26 8 8 21 11 36c2 9 9 15 19 15h20M37 25C29 19 20 25 21 33c1 6 6 8 12 8h16M12 28l10 2m-9 12 9-5m4 13 2-10m9 1v10"/>
<ellipse cx="46" cy="23" rx="11" ry="13"/><ellipse cx="46" cy="23" rx="6" ry="8"/><path d="m42 16 3 4m6-4-3 4m5 8-4-2m-6 5 2-4"/>
</g></symbol>
</svg>
